<?xml version="1.0"?>
<!DOCTYPE svg PUBLIC "-//W3C//DTD SVG 1.1//EN" "http://www.w3.org/Graphics/SVG/1.1/DTD/svg11.dtd">
<svg xmlns="http://www.w3.org/2000/svg" xmlns:xl="http://www.w3.org/1999/xlink" version="1.1" viewBox="3 -6 45 61" width="45pt" height="61pt"><metadata xmlns:dc="http://purl.org/dc/elements/1.1/"><dc:date>2014-07-21 02:32Z</dc:date><!-- Produced by OmniGraffle Professional 5.4.4 --></metadata><defs></defs><g stroke="none" stroke-opacity="1" stroke-dasharray="none" fill="none" fill-opacity="1"><title>Canvas 1</title><g><title>Layer 1</title><line x1="13.25" y1="3.25" x2="37.25" y2="3.25" stroke="#c79900" stroke-linecap="round" stroke-linejoin="round" stroke-width="3"/><path d="M 25.25 10.25 C 25.25 2.25 29.375 3.25 37.25 3.25" stroke="#c79900" stroke-linecap="round" stroke-linejoin="round" stroke-width="2"/><line x1="28.750001" y1="12.250018" x2="29.749999" y2="12.250018" stroke="#c79900" stroke-linecap="round" stroke-linejoin="round" stroke-width="2"/><line x1="21.749999" y1="12.2500195" x2="20.750001" y2="12.2500195" stroke="#c79900" stroke-linecap="round" stroke-linejoin="round" stroke-width="2"/><line x1="31.684389" y1="31.381222" x2="30.815611" y2="33.118778" stroke="#c79900" stroke-linecap="round" stroke-linejoin="round" stroke-width="2"/><line x1="20.750001" y1="28.250018" x2="21.749999" y2="28.250018" stroke="#c79900" stroke-linecap="round" stroke-linejoin="round" stroke-width="2"/><line x1="27.684389" y1="23.381222" x2="26.815611" y2="25.118778" stroke="#c79900" stroke-linecap="round" stroke-linejoin="round" stroke-width="2"/><line x1="15.684389" y1="15.381222" x2="14.815611" y2="17.118778" stroke="#c79900" stroke-linecap="round" stroke-linejoin="round" stroke-width="2"/><line x1="14.815611" y1="23.381223" x2="15.684389" y2="25.118777" stroke="#c79900" stroke-linecap="round" stroke-linejoin="round" stroke-width="2"/><line x1="34.815611" y1="15.381223" x2="35.684389" y2="17.118777" stroke="#c79900" stroke-linecap="round" stroke-linejoin="round" stroke-width="2"/><line x1="30.815611" y1="23.381223" x2="31.684389" y2="25.118777" stroke="#c79900" stroke-linecap="round" stroke-linejoin="round" stroke-width="2"/><line x1="26.815611" y1="15.381223" x2="27.684389" y2="17.118777" stroke="#c79900" stroke-linecap="round" stroke-linejoin="round" stroke-width="2"/><line x1="22.815611" y1="39.381223" x2="23.684389" y2="41.118777" stroke="#c79900" stroke-linecap="round" stroke-linejoin="round" stroke-width="2"/><line x1="27.684389" y1="39.381222" x2="26.815611" y2="41.118778" stroke="#c79900" stroke-linecap="round" stroke-linejoin="round" stroke-width="2"/><line x1="18.815611" y1="15.381223" x2="19.684389" y2="17.118777" stroke="#c79900" stroke-linecap="round" stroke-linejoin="round" stroke-width="2"/><circle cx="13.25" cy="20.25" r="3.0000048" fill="#39275b"/><circle cx="13.25" cy="20.25" r="3.0000048" stroke="#39275b" stroke-linecap="round" stroke-linejoin="round" stroke-width="1"/><circle cx="21.25" cy="20.25" r="3.0000048" fill="#39275b"/><circle cx="21.25" cy="20.25" r="3.0000048" stroke="#39275b" stroke-linecap="round" stroke-linejoin="round" stroke-width="1"/><circle cx="29.25" cy="20.25" r="3.0000048" fill="#39275b"/><circle cx="29.25" cy="20.25" r="3.0000048" stroke="#39275b" stroke-linecap="round" stroke-linejoin="round" stroke-width="1"/><circle cx="37.25" cy="20.25" r="3.0000048" fill="#39275b"/><circle cx="37.25" cy="20.25" r="3.0000048" stroke="#39275b" stroke-linecap="round" stroke-linejoin="round" stroke-width="1"/><circle cx="17.25" cy="28.25" r="3.0000048" fill="#39275b"/><circle cx="17.25" cy="28.25" r="3.0000048" stroke="#39275b" stroke-linecap="round" stroke-linejoin="round" stroke-width="1"/><circle cx="25.25" cy="28.25" r="3.0000048" fill="#39275b"/><circle cx="25.25" cy="28.25" r="3.0000048" stroke="#39275b" stroke-linecap="round" stroke-linejoin="round" stroke-width="1"/><circle cx="33.25" cy="28.25" r="3.0000048" fill="#39275b"/><circle cx="33.25" cy="28.25" r="3.0000048" stroke="#39275b" stroke-linecap="round" stroke-linejoin="round" stroke-width="1"/><circle cx="21.25" cy="36.25" r="3.0000048" fill="#39275b"/><circle cx="21.25" cy="36.25" r="3.0000048" stroke="#39275b" stroke-linecap="round" stroke-linejoin="round" stroke-width="1"/><circle cx="29.25" cy="36.25" r="3.0000048" fill="#39275b"/><circle cx="29.25" cy="36.25" r="3.0000048" stroke="#39275b" stroke-linecap="round" stroke-linejoin="round" stroke-width="1"/><circle cx="25.25" cy="44.25" r="3.0000048" fill="#39275b"/><circle cx="25.25" cy="44.25" r="3.0000048" stroke="#39275b" stroke-linecap="round" stroke-linejoin="round" stroke-width="1"/><circle cx="17.25" cy="12.25" r="3.0000048" fill="#39275b"/><circle cx="17.25" cy="12.25" r="3.0000048" stroke="#39275b" stroke-linecap="round" stroke-linejoin="round" stroke-width="1"/><circle cx="25.25" cy="12.25" r="3.0000048" fill="#39275b"/><circle cx="25.25" cy="12.25" r="3.0000048" stroke="#39275b" stroke-linecap="round" stroke-linejoin="round" stroke-width="1"/><circle cx="33.25" cy="12.25" r="3.0000048" fill="#39275b"/><circle cx="33.25" cy="12.25" r="3.0000048" stroke="#39275b" stroke-linecap="round" stroke-linejoin="round" stroke-width="1"/></g></g></svg>
